<svg class="Rie-svg" viewBox="0 0 261 161"><path d="M247.723 3.45312H131.033C136.403 3.61313 140.723 8.02312 140.723 13.4331V148.473C140.723 153.873 136.413 158.283 131.053 158.453H247.723C253.513 158.453 258.223 153.743 258.223 147.953V13.9531C258.223 8.16313 253.513 3.45312 247.723 3.45312Z" fill="white"></path><path d="M247.723 0.953125H13.7227C6.55266 0.953125 0.722656 6.78312 0.722656 13.9531V147.953C0.722656 155.123 6.55266 160.953 13.7227 160.953H247.723C254.893 160.953 260.723 155.123 260.723 147.953V13.9531C260.723 6.78312 254.893 0.953125 247.723 0.953125ZM258.223 147.953C258.223 153.743 253.513 158.453 247.723 158.453H131.053C136.413 158.283 140.723 153.873 140.723 148.473V13.4331C140.723 8.02312 136.403 3.61313 131.033 3.45312H247.723C253.513 3.45312 258.223 8.16313 258.223 13.9531V147.953Z" fill="#F0F0FF"></path><path d="M24.7744 42.9531C24.7744 36.3257 30.147 30.9531 36.7744 30.9531H104.88C111.507 30.9531 116.88 36.3257 116.88 42.9531V118.953C116.88 125.581 111.507 130.953 104.88 130.953H36.7744C30.147 130.953 24.7744 125.581 24.7744 118.953V42.9531Z" fill="white"></path><path d="M42.3271 51.9531C39.5657 51.9531 37.3271 54.1917 37.3271 56.9531C37.3271 59.7146 39.5657 61.9531 42.3271 61.9531H99.3271C102.089 61.9531 104.327 59.7146 104.327 56.9531C104.327 54.1917 102.089 51.9531 99.3271 51.9531H42.3271Z" fill="#F0F0FF"></path><path d="M42.3271 67.9531C39.5657 67.9531 37.3271 70.1917 37.3271 72.9531C37.3271 75.7145 39.5657 77.9531 42.3271 77.9531H99.3271C102.089 77.9531 104.327 75.7145 104.327 72.9531C104.327 70.1917 102.089 67.9531 99.3271 67.9531H42.3271Z" fill="#F0F0FF"></path><path d="M37.3271 88.9531C37.3271 86.1917 39.5657 83.9531 42.3271 83.9531H99.3271C102.089 83.9531 104.327 86.1917 104.327 88.9531C104.327 91.7146 102.089 93.9531 99.3271 93.9531H42.3271C39.5657 93.9531 37.3271 91.7146 37.3271 88.9531Z" fill="#F0F0FF"></path><path d="M42.3271 99.9531C39.5657 99.9531 37.3271 102.192 37.3271 104.953C37.3271 107.715 39.5657 109.953 42.3271 109.953H99.3271C102.089 109.953 104.327 107.715 104.327 104.953C104.327 102.192 102.089 99.9531 99.3271 99.9531H42.3271Z" fill="#F0F0FF"></path></svg>