<svg xmlns="http://www.w3.org/2000/svg" viewBox="0 0 32 32"    class="Rie-svg"><path d="M27.0769 17.641C27.0727 17.9661 26.9416 18.2767 26.7117 18.5066C26.4818 18.7365 26.1713 18.8675 25.8462 18.8718H19.2821C18.9556 18.8718 18.6426 18.7421 18.4118 18.5113C18.181 18.2805 18.0513 17.9674 18.0513 17.641C18.0513 17.3146 18.181 17.0016 18.4118 16.7707C18.6426 16.5399 18.9556 16.4103 19.2821 16.4103H25.8462C26.1713 16.4145 26.4818 16.5455 26.7117 16.7754C26.9416 17.0053 27.0727 17.3159 27.0769 17.641ZM25.8462 11.4872H19.2821C18.9556 11.4872 18.6426 11.6168 18.4118 11.8477C18.181 12.0785 18.0513 12.3915 18.0513 12.7179C18.0513 13.0444 18.181 13.3574 18.4118 13.5882C18.6426 13.819 18.9556 13.9487 19.2821 13.9487H25.8462C26.1726 13.9487 26.4856 13.819 26.7164 13.5882C26.9473 13.3574 27.0769 13.0444 27.0769 12.7179C27.0769 12.3915 26.9473 12.0785 26.7164 11.8477C26.4856 11.6168 26.1726 11.4872 25.8462 11.4872ZM32 2.87179V22.5641C31.9957 23.3244 31.6917 24.0524 31.1541 24.59C30.6165 25.1276 29.8885 25.4316 29.1282 25.4359H20.5128V29.5385H24.2051C24.5315 29.5385 24.8446 29.6681 25.0754 29.8989C25.3062 30.1298 25.4359 30.4428 25.4359 30.7692C25.4359 31.0957 25.3062 31.4087 25.0754 31.6395C24.8446 31.8703 24.5315 32 24.2051 32H7.79487C7.46845 32 7.1554 31.8703 6.92459 31.6395C6.69377 31.4087 6.5641 31.0957 6.5641 30.7692C6.5641 30.4428 6.69377 30.1298 6.92459 29.8989C7.1554 29.6681 7.46845 29.5385 7.79487 29.5385H11.4872V25.4359H2.87179C2.11148 25.4316 1.38352 25.1276 0.845889 24.59C0.308254 24.0524 0.00430786 23.3244 0 22.5641V2.87179C0.00430786 2.11148 0.308254 1.38352 0.845889 0.845889C1.38352 0.308254 2.11148 0.00430786 2.87179 0H29.1282C29.8885 0.00430786 30.6165 0.308254 31.1541 0.845889C31.6917 1.38352 31.9957 2.11148 32 2.87179ZM18.0513 25.4359H13.9487V29.5385H18.0513V25.4359ZM29.5385 2.87179C29.5385 2.76299 29.4952 2.65864 29.4183 2.5817C29.3414 2.50476 29.237 2.46154 29.1282 2.46154H2.87179C2.76299 2.46154 2.65864 2.50476 2.5817 2.5817C2.50476 2.65864 2.46154 2.76299 2.46154 2.87179V22.5641C2.46154 22.6729 2.50476 22.7773 2.5817 22.8542C2.65864 22.9311 2.76299 22.9744 2.87179 22.9744H29.1282C29.237 22.9744 29.3414 22.9311 29.4183 22.8542C29.4952 22.7773 29.5385 22.6729 29.5385 22.5641V2.87179ZM15.5897 12.7179V17.641C15.5854 18.4013 15.2815 19.1293 14.7439 19.6669C14.2062 20.2046 13.4783 20.5085 12.7179 20.5128H7.79487C7.03455 20.5085 6.3066 20.2046 5.76897 19.6669C5.23133 19.1293 4.92738 18.4013 4.92308 17.641V12.7179C4.92738 11.9576 5.23133 11.2297 5.76897 10.692C6.3066 10.1544 7.03455 9.85046 7.79487 9.84615H12.7179C13.4783 9.85046 14.2062 10.1544 14.7439 10.692C15.2815 11.2297 15.5854 11.9576 15.5897 12.7179ZM13.1282 12.7179C13.1282 12.6091 13.085 12.5048 13.008 12.4279C12.9311 12.3509 12.8268 12.3077 12.7179 12.3077H7.79487C7.68607 12.3077 7.58171 12.3509 7.50478 12.4279C7.42784 12.5048 7.38462 12.6091 7.38462 12.7179V17.641C7.38462 17.7498 7.42784 17.8542 7.50478 17.9311C7.58171 18.0081 7.68607 18.0513 7.79487 18.0513H12.7179C12.8268 18.0513 12.9311 18.0081 13.008 17.9311C13.085 17.8542 13.1282 17.7498 13.1282 17.641V12.7179ZM25.8462 4.92308H6.15385C5.82743 4.92308 5.51437 5.05275 5.28356 5.28356C5.05275 5.51437 4.92308 5.82743 4.92308 6.15385C4.92308 6.48027 5.05275 6.79332 5.28356 7.02413C5.51437 7.25495 5.82743 7.38462 6.15385 7.38462H25.8462C26.1726 7.38462 26.4856 7.25495 26.7164 7.02413C26.9473 6.79332 27.0769 6.48027 27.0769 6.15385C27.0769 5.82743 26.9473 5.51437 26.7164 5.28356C26.4856 5.05275 26.1726 4.92308 25.8462 4.92308Z"/></svg>