<svg xmlns="http://www.w3.org/2000/svg" viewBox="0 0 32 32"    class="Rie-svg"><path d="M32 9.33333V20C32 23.676 29.0093 26.6667 25.3333 26.6667H17.3333V29.3333H22.6667C23.4027 29.3333 24 29.9293 24 30.6667C24 31.404 23.4027 32 22.6667 32H9.33333C8.59733 32 8 31.404 8 30.6667C8 29.9293 8.59733 29.3333 9.33333 29.3333H14.6667V26.6667H6.66667C2.99067 26.6667 0 23.676 0 20V9.33333C0 8.596 0.597333 8 1.33333 8C2.06933 8 2.66667 8.596 2.66667 9.33333V20C2.66667 22.2053 4.46133 24 6.66667 24H25.3333C27.5387 24 29.3333 22.2053 29.3333 20V9.33333C29.3333 8.596 29.9307 8 30.6667 8C31.4027 8 32 8.596 32 9.33333ZM22.6667 13.3333C23.4027 13.3333 24 12.7373 24 12V5.33333C24 4.59733 24.5987 4 25.3333 4H27.036C27.4973 4.79333 28.348 5.33333 29.3333 5.33333C30.8067 5.33333 32 4.14 32 2.66667C32 1.19333 30.8067 0 29.3333 0C28.3493 0 27.4987 0.54 27.036 1.33333H25.3333C23.128 1.33333 21.3333 3.128 21.3333 5.33333V12C21.3333 12.7373 21.9307 13.3333 22.6667 13.3333ZM2.66667 5.33333C3.65067 5.33333 4.50133 4.79333 4.964 4H6.66667C7.40133 4 8 4.59733 8 5.33333V12C8 12.7373 8.59733 13.3333 9.33333 13.3333C10.0693 13.3333 10.6667 12.7373 10.6667 12V5.33333C10.6667 3.128 8.872 1.33333 6.66667 1.33333H4.964C4.50267 0.54 3.652 0 2.66667 0C1.19333 0 0 1.19333 0 2.66667C0 4.14 1.19333 5.33333 2.66667 5.33333ZM14.6667 4.964V12C14.6667 12.7373 15.264 13.3333 16 13.3333C16.736 13.3333 17.3333 12.7373 17.3333 12V4.964C18.1267 4.50267 18.6667 3.652 18.6667 2.66667C18.6667 1.19333 17.4733 0 16 0C14.5267 0 13.3333 1.19333 13.3333 2.66667C13.3333 3.65067 13.8733 4.50133 14.6667 4.964Z"/></svg>