<svg xmlns="http://www.w3.org/2000/svg" viewBox="0 0 32 32"    class="Rie-svg"><path d="M27.3345 20.1853V11.7265C27.8572 11.5376 28.3505 11.2462 28.7692 10.8283L30.8546 8.74723C32.3814 7.22366 32.3814 4.74603 30.8546 3.22379L28.7692 1.14268C27.2411 -0.382223 24.7584 -0.379562 23.2343 1.14268L21.1489 3.22379C20.7369 3.63495 20.4409 4.12462 20.2488 4.65554H11.8192C11.1845 2.03021 8.8257 0.0661992 6.00158 0.0661992C2.69211 0.0648686 0 2.75141 0 6.05271C0 8.65143 1.6774 10.8456 4.00017 11.6733V21.355H3.73482C1.67607 21.355 0 23.0262 0 25.0807V28.2742C0 30.3287 1.67607 32 3.73482 32H6.93362C8.99238 32 10.6671 30.3287 10.6671 28.2742V25.0807C10.6671 23.0262 8.99238 21.355 6.93362 21.355H6.66694V11.9727C9.23639 11.6839 11.3231 9.7971 11.8605 7.31414H20.2475C20.4395 7.84507 20.7355 8.33474 21.1475 8.7459L23.233 10.827C23.6517 11.2448 24.1437 11.5362 24.6664 11.7252V20.184C21.9996 20.7921 19.9995 23.1673 19.9995 26.0108C19.9995 29.3121 22.6916 31.9987 25.9998 31.9987C29.3079 31.9987 32 29.3121 32 26.0108C32 23.1673 29.9999 20.7921 27.3331 20.184L27.3345 20.1853ZM8.00033 25.0807V28.2742C8.00033 28.861 7.52298 29.3387 6.93362 29.3387H3.73482C3.1468 29.3387 2.66678 28.8624 2.66678 28.2742V25.0807C2.66678 24.4939 3.14546 24.0162 3.73482 24.0162H6.93362C7.52165 24.0162 8.00033 24.4926 8.00033 25.0807ZM6.00025 9.37928C4.16151 9.37928 2.66678 7.88631 2.66678 6.05271C2.66678 4.2191 4.16151 2.72613 6.00025 2.72613C7.83899 2.72613 9.33372 4.2191 9.33372 6.05271C9.33372 7.88631 7.83899 9.37928 6.00025 9.37928ZM23.033 6.86439C22.797 6.62887 22.6689 6.31617 22.6689 5.98351C22.6689 5.65086 22.7983 5.33816 23.033 5.10264L25.1184 3.02153C25.3544 2.78601 25.6677 2.65694 26.0011 2.65694C26.3344 2.65694 26.6464 2.78601 26.8825 3.02153L28.9679 5.10264C29.2039 5.33816 29.3332 5.65086 29.3332 5.98351C29.3332 6.31617 29.2026 6.62887 28.9679 6.86439L26.8825 8.9455C26.4104 9.41654 25.5877 9.41521 25.1184 8.9455L23.033 6.86439ZM26.0011 29.3387C24.1623 29.3387 22.6676 27.8471 22.6676 26.0122C22.6676 24.1772 24.1623 22.6856 26.0011 22.6856C27.8398 22.6856 29.3346 24.1772 29.3346 26.0122C29.3346 27.8471 27.8398 29.3387 26.0011 29.3387Z"/></svg>